<?xml version="1.0" encoding="utf-8"?>
<!-- Generator: Adobe Illustrator 22.1.0, SVG Export Plug-In . SVG Version: 6.00 Build 0)  -->
<svg version="1.1" id="Camada_1" xmlns="http://www.w3.org/2000/svg" xmlns:xlink="http://www.w3.org/1999/xlink" x="0px" y="0px"
	 viewBox="0 0 1918 354" style="enable-background:new 0 0 1918 354;" xml:space="preserve">
<style type="text/css">
	.st0{fill:#FFFFFF;}
	.st1{fill:#D8B66E;}
</style>
<g>
	<path class="st0" d="M661.9,132.5c-1,0-1.4,0.4-1.7,1.5l-10.5,26.5c-1.9,4.8-2.9,9.5-2.9,11.8c0,3.5,1.7,6,7.7,6h2.9
		c2.3,0,2.9,0.4,2.9,1.5c0,1.5-1.2,1.9-3.3,1.9c-6.2,0-14.5-0.6-20.5-0.6c-2.1,0-12.8,0.6-22.8,0.6c-2.5,0-3.7-0.4-3.7-1.9
		c0-1.2,0.8-1.5,2.3-1.5c1.7,0,4.5-0.2,6-0.4c8.9-1.2,12.6-7.7,16.5-17.4l48.6-120c2.3-5.6,3.5-7.7,5.4-7.7c1.7,0,2.9,1.7,4.8,6.2
		c4.6,10.6,35.6,88.1,48,117.5c7.4,17.4,13,20.1,17,21.1c2.9,0.6,5.8,0.8,8.1,0.8c1.5,0,2.5,0.2,2.5,1.5c0,1.5-1.7,1.9-8.9,1.9
		c-7,0-21.1,0-36.6-0.4c-3.5-0.2-5.8-0.2-5.8-1.5c0-1.2,0.8-1.5,2.7-1.7c1.4-0.4,2.7-2.1,1.7-4.4L707,133.9c-0.4-1-1-1.4-1.9-1.4
		H661.9z M701.4,122.8c1,0,1.2-0.6,1-1.2L685,74c-0.2-0.8-0.4-1.7-1-1.7s-1,1-1.2,1.7L665,121.5c-0.2,0.8,0,1.4,0.8,1.4h35.6V122.8z
		"/>
	<path class="st0" d="M777.1,179.5c-3.1-1.4-3.7-2.3-3.7-6.6c0-10.6,0.8-22.3,1-25.4c0.2-2.9,0.8-5,2.3-5c1.7,0,1.9,1.7,1.9,3.3
		c0,2.5,0.8,6.6,1.7,9.9c4.3,14.3,15.7,19.5,27.7,19.5c17.4,0,25.9-11.8,25.9-22.1c0-9.5-2.9-18.4-19-31l-8.9-7
		c-21.3-16.6-28.6-30.2-28.6-45.9c0-21.3,17.8-36.6,44.7-36.6c12.6,0,20.7,1.9,25.7,3.3c1.7,0.4,2.7,1,2.7,2.3
		c0,2.5-0.8,8.1-0.8,23.2c0,4.3-0.6,5.8-2.1,5.8c-1.4,0-1.9-1.2-1.9-3.5c0-1.7-1-7.7-5-12.8c-2.9-3.7-8.5-9.5-21.1-9.5
		c-14.3,0-23,8.3-23,19.9c0,8.9,4.4,15.7,20.5,27.9l5.4,4.1c23.4,17.6,31.7,31,31.7,49.4c0,11.2-4.3,24.6-18.2,33.7
		c-9.7,6.2-20.5,7.9-30.8,7.9C794.1,184.6,785.4,183.2,777.1,179.5z"/>
	<path class="st0" d="M889.7,179.5c-3.1-1.4-3.7-2.3-3.7-6.6c0-10.6,0.8-22.3,1-25.4c0.2-2.9,0.8-5,2.3-5c1.7,0,1.9,1.7,1.9,3.3
		c0,2.5,0.8,6.6,1.7,9.9c4.3,14.3,15.7,19.5,27.7,19.5c17.4,0,25.9-11.8,25.9-22.1c0-9.5-2.9-18.4-19-31l-8.9-7
		c-21.3-16.6-28.6-30.2-28.6-45.9c0-21.3,17.8-36.6,44.7-36.6c12.6,0,20.7,1.9,25.7,3.3c1.7,0.4,2.7,1,2.7,2.3
		c0,2.5-0.8,8.1-0.8,23.2c0,4.3-0.6,5.8-2.1,5.8c-1.4,0-1.9-1.2-1.9-3.5c0-1.7-1-7.7-5-12.8c-2.9-3.7-8.5-9.5-21.1-9.5
		c-14.3,0-23,8.3-23,19.9c0,8.9,4.4,15.7,20.5,27.9l5.4,4.1c23.4,17.6,31.7,31,31.7,49.4c0,11.2-4.3,24.6-18.2,33.7
		c-9.7,6.2-20.5,7.9-30.8,7.9C906.8,184.6,898,183.2,889.7,179.5z"/>
	<path class="st0" d="M1013,91.7c0-29.4,0-34.8-0.4-41c-0.4-6.6-1.9-9.7-8.3-11c-1.5-0.4-4.8-0.6-7.6-0.6c-2.1,0-3.3-0.4-3.3-1.7
		c0-1.4,1.4-1.7,4.3-1.7c5.2,0,10.8,0.2,15.7,0.2c5,0.2,9.5,0.4,12.2,0.4c6.2,0,44.7,0,48.4-0.2c3.7-0.4,6.8-0.8,8.3-1.2
		c1-0.2,2.1-0.8,3.1-0.8s1.2,0.8,1.2,1.7c0,1.4-1,3.7-1.5,12.6c-0.2,1.9-0.6,10.5-1,12.8c-0.2,1-0.6,2.1-1.9,2.1
		c-1.4,0-1.7-1-1.7-2.7c0-1.4-0.2-4.6-1.2-7c-1.4-3.5-3.3-5.8-13-7c-3.3-0.4-23.6-0.8-27.5-0.8c-1,0-1.4,0.6-1.4,1.9v49
		c0,1.4,0.2,2.1,1.4,2.1c4.3,0,26.5,0,31-0.4c4.6-0.4,7.6-1,9.3-2.9c1.4-1.5,2.1-2.5,3.1-2.5c0.8,0,1.4,0.4,1.4,1.5
		s-0.8,4.3-1.5,14.1c-0.2,3.9-0.8,11.6-0.8,13c0,1.5,0,3.7-1.7,3.7c-1.4,0-1.7-0.8-1.7-1.7c-0.2-1.9-0.2-4.4-0.8-7
		c-1-3.9-3.7-6.8-10.8-7.6c-3.7-0.4-22.8-0.6-27.5-0.6c-1,0-1.2,0.8-1.2,1.9v15.3c0,6.6-0.2,24.4,0,30c0.4,13.4,3.5,16.3,23.2,16.3
		c5,0,13.2,0,18.2-2.3s7.4-6.4,8.7-14.3c0.4-2.1,0.8-2.9,2.1-2.9c1.5,0,1.5,1.5,1.5,3.5c0,4.5-1.5,17.6-2.5,21.5
		c-1.4,5-3.1,5-10.5,5c-14.5,0-25.2-0.4-33.5-0.6c-8.3-0.4-14.3-0.6-20.1-0.6c-2.1,0-6.4,0-11,0.2c-4.5,0-9.5,0.4-13.4,0.4
		c-2.5,0-3.9-0.6-3.9-1.9c0-1,0.8-1.5,3.1-1.5c2.9,0,5.2-0.4,7-0.8c3.9-0.8,4.8-5,5.6-10.6c1-8.1,1-23.4,1-41.2V91.7H1013z"/>
	<path class="st0" d="M1124.7,179.5c-3.1-1.4-3.7-2.3-3.7-6.6c0-10.6,0.8-22.3,1-25.4c0.2-2.9,0.8-5,2.3-5c1.7,0,1.9,1.7,1.9,3.3
		c0,2.5,0.8,6.6,1.7,9.9c4.3,14.3,15.7,19.5,27.7,19.5c17.4,0,25.9-11.8,25.9-22.1c0-9.5-2.9-18.4-19-31l-8.9-7
		c-21.3-16.6-28.6-30.2-28.6-45.9c0-21.3,17.8-36.6,44.7-36.6c12.6,0,20.7,1.9,25.7,3.3c1.7,0.4,2.7,1,2.7,2.3
		c0,2.5-0.8,8.1-0.8,23.2c0,4.3-0.6,5.8-2.1,5.8c-1.4,0-1.9-1.2-1.9-3.5c0-1.7-1-7.7-5-12.8c-2.9-3.7-8.5-9.5-21.1-9.5
		c-14.3,0-23,8.3-23,19.9c0,8.9,4.4,15.7,20.5,27.9l5.4,4.1c23.4,17.6,31.7,31,31.7,49.4c0,11.2-4.3,24.6-18.2,33.7
		c-9.7,6.2-20.5,7.9-30.8,7.9C1141.7,184.6,1133,183.2,1124.7,179.5z"/>
	<path class="st0" d="M1237.4,179.5c-3.1-1.4-3.7-2.3-3.7-6.6c0-10.6,0.8-22.3,1-25.4c0.2-2.9,0.8-5,2.3-5c1.7,0,1.9,1.7,1.9,3.3
		c0,2.5,0.8,6.6,1.7,9.9c4.3,14.3,15.7,19.5,27.7,19.5c17.4,0,25.9-11.8,25.9-22.1c0-9.5-2.9-18.4-19-31l-8.9-7
		c-21.3-16.6-28.6-30.2-28.6-45.9c0-21.3,17.8-36.6,44.7-36.6c12.6,0,20.7,1.9,25.7,3.3c1.7,0.4,2.7,1,2.7,2.3
		c0,2.5-0.8,8.1-0.8,23.2c0,4.3-0.6,5.8-2.1,5.8c-1.4,0-1.9-1.2-1.9-3.5c0-1.7-1-7.7-5-12.8c-2.9-3.7-8.5-9.5-21.1-9.5
		c-14.3,0-23,8.3-23,19.9c0,8.9,4.4,15.7,20.5,27.9l5.4,4.1c23.4,17.6,31.7,31,31.7,49.4c0,11.2-4.3,24.6-18.2,33.7
		c-9.7,6.2-20.5,7.9-30.8,7.9C1254.4,184.6,1245.7,183.2,1237.4,179.5z"/>
	<path class="st0" d="M1339.6,108.7c0-33.1,21.9-75.9,79.9-75.9c48.2,0,78.2,28.1,78.2,72.4s-31,79.4-80.1,79.4
		C1362,184.6,1339.6,143,1339.6,108.7z M1470.6,112.4c0-43.4-25-70.3-56.7-70.3c-22.3,0-47.6,12.4-47.6,60.6
		c0,40.3,22.3,72.2,59.4,72.2C1439.3,174.9,1470.6,168.3,1470.6,112.4z"/>
	<path class="st0" d="M1538.2,91.7c0-29.4,0-34.8-0.4-41c-0.4-6.6-1.9-9.7-8.3-11c-1.5-0.4-4.8-0.6-7.6-0.6c-2.1,0-3.3-0.4-3.3-1.7
		c0-1.4,1.4-1.7,4.3-1.7c10.3,0,22.4,0.6,26.5,0.6c6.6,0,21.3-0.6,27.3-0.6c12.2,0,25.2,1.2,35.6,8.3c5.4,3.7,13.2,13.5,13.2,26.5
		c0,14.3-6,27.5-25.6,43.4c17.2,21.7,30.6,38.9,42,50.9c10.8,11.2,18.8,12.6,21.7,13.2c2.1,0.4,3.9,0.6,5.4,0.6s2.3,0.6,2.3,1.5
		c0,1.5-1.4,1.9-3.7,1.9h-18.4c-10.8,0-15.7-1-20.7-3.7c-8.3-4.4-15.7-13.5-26.5-28.5c-7.7-10.6-16.6-23.8-19.2-26.7
		c-1-1.2-2.1-1.4-3.5-1.4l-16.8-0.4c-1,0-1.5,0.4-1.5,1.5v2.7c0,18,0,33.3,1,41.4c0.6,5.6,1.7,9.9,7.5,10.6c2.9,0.4,7.2,0.8,9.5,0.8
		c1.5,0,2.3,0.6,2.3,1.5c0,1.4-1.4,1.9-3.9,1.9c-11.2,0-25.6-0.6-28.5-0.6c-3.7,0-15.9,0.6-23.6,0.6c-2.5,0-3.9-0.6-3.9-1.9
		c0-1,0.8-1.5,3.1-1.5c2.9,0,5.2-0.4,7-0.8c3.9-0.8,4.8-5,5.6-10.6c1-8.1,1-23.4,1-41.2v-34H1538.2z M1561,107
		c0,2.1,0.4,2.9,1.7,3.5c4.1,1.4,9.9,1.9,14.7,1.9c7.7,0,10.3-0.8,13.7-3.3c5.8-4.3,11.4-13.2,11.4-29c0-27.5-18.2-35.4-29.6-35.4
		c-4.8,0-8.3,0.2-10.3,0.8c-1.4,0.4-1.7,1.2-1.7,2.7V107H1561z"/>
	<path class="st0" d="M1684.3,91.7c0-29.4,0-34.8-0.4-41c-0.4-6.6-2.3-9.9-6.6-10.8c-2.1-0.6-4.6-0.8-7-0.8c-1.9,0-3.1-0.4-3.1-1.9
		c0-1.2,1.6-1.5,4.6-1.5c7.4,0,19.5,0.6,25.2,0.6c4.8,0,16.3-0.6,23.6-0.6c2.5,0,4.1,0.4,4.1,1.5c0,1.5-1.2,1.9-3.1,1.9
		s-3.5,0.2-5.8,0.6c-5.2,1-6.8,4.3-7.2,11c-0.4,6.2-0.4,11.6-0.4,41v34.1c0,18.8,0,34.1,0.8,42.4c0.6,5.2,1.9,8.7,7.7,9.5
		c2.7,0.4,7,0.8,9.9,0.8c2.1,0,3.1,0.6,3.1,1.5c0,1.4-1.5,1.9-3.7,1.9c-12.8,0-25-0.6-30.2-0.6c-4.5,0-16.6,0.6-24.4,0.6
		c-2.5,0-3.9-0.6-3.9-1.9c0-1,0.8-1.5,3.1-1.5c2.9,0,5.2-0.4,7-0.8c3.9-0.8,5-4.1,5.6-9.7c1-8.1,1-23.4,1-42.2V91.7H1684.3z"/>
	<path class="st0" d="M1779.6,132.5c-1,0-1.4,0.4-1.7,1.5l-10.5,26.5c-1.9,4.8-2.9,9.5-2.9,11.8c0,3.5,1.7,6,7.7,6h2.9
		c2.3,0,2.9,0.4,2.9,1.5c0,1.5-1.2,1.9-3.3,1.9c-6.2,0-14.5-0.6-20.5-0.6c-2.1,0-12.8,0.6-22.8,0.6c-2.5,0-3.7-0.4-3.7-1.9
		c0-1.2,0.8-1.5,2.3-1.5c1.7,0,4.4-0.2,6-0.4c8.9-1.2,12.6-7.7,16.5-17.4l48.6-120c2.3-5.6,3.5-7.7,5.4-7.7c1.7,0,2.9,1.7,4.8,6.2
		c4.6,10.6,35.6,88.1,48,117.5c7.4,17.4,13,20.1,17,21.1c2.9,0.6,5.8,0.8,8.1,0.8c1.5,0,2.5,0.2,2.5,1.5c0,1.5-1.7,1.9-8.9,1.9
		c-7,0-21.1,0-36.6-0.4c-3.5-0.2-5.8-0.2-5.8-1.5c0-1.2,0.8-1.5,2.7-1.7c1.4-0.4,2.7-2.1,1.7-4.4l-15.5-39.9c-0.4-1-1-1.4-1.9-1.4
		L1779.6,132.5L1779.6,132.5z M1819.1,122.8c1,0,1.2-0.6,1-1.2L1802.7,74c-0.2-0.8-0.4-1.7-1-1.7s-1,1-1.2,1.7l-17.8,47.4
		c-0.2,0.8,0,1.4,0.8,1.4C1783.5,122.8,1819.1,122.8,1819.1,122.8z"/>
</g>
<g>
	<path class="st1" d="M508.5,36.5c7.4,0,9.3,1.2,9.3,3.1c0,2.3-1.6,5.4-2.7,7c-32.2,45.8-92.8,199.9-98.6,249.6
		c-0.8,6.6,0.3,18.5,0.1,23.5c-0.2,6.6-31.9,4.8-49.4,4.8c-4.3,0-4.2-1.8-4.2-5.3c0-3.9,2.4-12.6,2.8-13.1
		c10.9-37.3,59.6-144.3,113.2-233.9H378.5c-10.9,0-27.2,0.8-36.5,7c-7,4.7-12,17.1-12.8,23.3c-0.4,3.1-1.6,5-3.9,5
		c-2.7,0-3.1-1.9-3.1-5.8c0-14.4,5.8-59.8,5.8-63.7s1.6-5.4,3.9-5.4s11.3,3.9,52.4,3.9L508.5,36.5L508.5,36.5z"/>
	<path class="st1" d="M252.8,305.6c-9.3,4.3-22.9,4.3-33,4.3c-81.9,0-135.1-62.5-135.1-145.9c0-47.7,14-76.8,35.7-95.1
		c27.2-22.5,55.5-24.1,76.8-24.1c43.9,0,74.9,17.9,86.6,30.3c10.1,10.9,12,23.3,13.2,32.2c0.4,3.1,1.2,5,3.9,5
		c3.1,0,4.3-1.9,4.3-8.2c0-48.5,2.7-59.4,2.7-63.7c0-2.7-0.8-4.3-5.4-4.7c-8.9-0.4-22.5-2.7-30.7-4.3c-7.8-1.6-41.9-6.2-68.7-6.2
		c-32.6,0-67.1,2.7-104.4,25.2c-35.3,21.3-67.5,64.8-67.5,126.9c0,107.1,84.2,152.1,179.3,152.1c30.3,0,68.3-4.3,93.5-17.5
		c4.7-2.7,5-3.5,5-14v-1.6h-49.4C258.8,300.5,256.9,303.6,252.8,305.6z"/>
	<path class="st1" d="M309.4,208.9c0.4-13.6,4.3-20.2,14.7-22.1c4.7-0.8,7.4-1.2,10.5-1.2c2.7,0,5-0.8,5-3.1c0-3.1-2.7-3.9-7.8-3.9
		c-12.8,0-33.4,1.2-45.4,1.2c-11.6,0-36.1-1.2-56.3-1.2c-5.4,0-8.1,0.8-8.1,3.9c0,2.3,2.3,3.1,5.8,3.1c5.4,0,12,0.4,15.1,1.2
		c12.8,2.7,16.3,8.9,16.7,22.1c0,0.3,0,0.6,0,0.9h49.6C309.4,209.5,309.4,209.2,309.4,208.9z"/>
	<g>
		<g>
			<path class="st1" d="M259.7,216.9c0.1,10.6,0.1,23.9,0.1,41.3v33.5c0,1.8,0,3.4-0.1,4.9h12v-37.7c0-17.4,0-31.4,0.1-42
				L259.7,216.9L259.7,216.9z"/>
			<path class="st1" d="M297.1,216.9c0.1,10.6,0.1,23.9,0.1,41.3v33.5c0,1.8,0,3.4-0.1,4.9h12v-37.7c0-17.4,0-31.4,0.1-42
				L297.1,216.9L297.1,216.9z"/>
		</g>
	</g>
	<path class="st1" d="M278.4,216.9c0.1,10.6,0.1,23.9,0.1,41.3v33.5c0,1.8,0,3.4-0.1,4.9h12v-37.7c0-17.4,0-31.4,0.1-42L278.4,216.9
		L278.4,216.9z"/>
</g>
<g>
	<path class="st0" d="M649.5,283.2c0,18.1-0.4,25-3.8,32.9c-2.5,5.6-7.6,10.9-16.9,17c-1.6,1-3.5,2.2-4.7,2.9
		c-0.1,0-0.4,0.1-0.8,0.1c-0.3,0-0.8-0.1-0.8-0.7c0-0.7,0.4-1.2,1.4-1.8c1.4-0.8,3-2.1,4.1-3c7.5-7.5,11-13.2,11-41.9v-32.2
		c0-17.3,0-20.4-0.3-24c-0.3-3.8-0.9-5.6-4.7-6.2c-0.9-0.1-2.9-0.3-3.9-0.3c-0.4,0-0.9-0.5-0.9-0.9c0-0.7,0.5-0.9,1.8-0.9
		c5.2,0,12.7,0.3,13.4,0.3c0.5,0,7.7-0.3,11.3-0.3c1.3,0,1.8,0.3,1.8,0.9c0,0.4-0.5,0.9-0.9,0.9c-0.8,0-1.6,0-2.9,0.3
		c-3.1,0.7-3.8,2.2-4.1,6.2c-0.1,3.5-0.1,6.7-0.1,24L649.5,283.2L649.5,283.2z"/>
	<path class="st0" d="M773.1,256.5c0-17.3,0-20.4-0.3-24c-0.3-3.5-0.9-5.6-4.7-6.2c-0.9-0.1-2.9-0.3-3.9-0.3c-0.4,0-0.9-0.5-0.9-0.9
		c0-0.7,0.5-0.9,1.8-0.9c5.2,0,12.2,0.3,13.2,0.3s8.3-0.3,11.7-0.3c1.3,0,2,0.3,2,0.9c0,0.4-0.5,0.9-1,0.9c-0.8,0-1.4,0-2.9,0.3
		c-3,0.5-3.7,2.5-3.9,6.2c-0.3,3.5-0.3,6.7-0.3,24v15.6c0,16.1,3.5,22.8,8.5,27.2c5.6,5.1,10.6,6,17.2,6c7.1,0,13.9-3.1,17.8-7.9
		c5.4-6.4,6.6-15.6,6.6-27v-14c0-17.3-0.1-20.4-0.3-24c-0.1-3.5-0.8-5.6-4.6-6.2c-0.9-0.1-2.9-0.3-3.9-0.3c-0.5,0-0.9-0.5-0.9-0.9
		c0-0.7,0.5-0.9,1.8-0.9c5.1,0,11.8,0.3,12.4,0.3c0.8,0,6.3-0.3,9.7-0.3c1.3,0,1.8,0.3,1.8,0.9c0,0.4-0.4,0.9-0.9,0.9
		c-0.8,0-1.4,0-2.9,0.3c-3.1,0.7-3.8,2.5-4.1,6.2c-0.3,3.5-0.1,6.7-0.1,24v11.9c0,12.1-1.6,25.5-10.7,33.4
		c-8.4,7.2-17.3,8.1-24.1,8.1c-3.8,0-15.9-0.3-24-7.9c-5.6-5.2-10.1-13-10.1-29.2L773.1,256.5L773.1,256.5z"/>
	<path class="st0" d="M966.6,256.5c0-17.3,0-20.4-0.3-24c-0.3-3.8-0.9-5.6-4.7-6.2c-0.9-0.1-2.9-0.3-3.9-0.3c-0.4,0-0.9-0.5-0.9-0.9
		c0-0.7,0.5-0.9,1.8-0.9c5.2,0,13,0.3,13.6,0.3c1.2,0,10.9-0.3,14.4-0.3c7.3,0,15.5,0.7,21.5,4.8c2.9,2.1,8,7.5,8,15.2
		c0,8.3-3.4,16.2-14.1,25.4c9.4,11.8,17.4,21.9,24.1,28.8c6.2,6.3,10,7.3,12.8,7.7c2.2,0.4,3.4,0.4,4.1,0.4s1,0.5,1,0.9
		c0,0.7-0.7,0.9-2.8,0.9h-7.2c-6.6,0-9.4-0.7-12.3-2.2c-5-2.6-9.2-8-15.7-16.4c-4.8-6-10-13.2-12.4-16.2c-0.5-0.5-0.8-0.7-1.6-0.7
		l-14.7-0.3c-0.5,0-0.8,0.3-0.8,0.9v2.6c0,10.7,0,19.4,0.5,24c0.4,3.3,1,5.4,4.6,5.9c1.6,0.3,4.1,0.5,5.1,0.5c0.8,0,0.9,0.5,0.9,0.9
		c0,0.5-0.5,0.9-1.8,0.9c-6.3,0-13.6-0.4-14.1-0.4c-0.1,0-7.9,0.4-11.4,0.4c-1.2,0-1.8-0.3-1.8-0.9c0-0.4,0.3-0.9,0.9-0.9
		c1,0,2.5-0.3,3.5-0.5c2.2-0.5,2.5-2.6,3-5.9c0.7-4.6,0.7-13.4,0.7-24.1L966.6,256.5L966.6,256.5z M976.5,265.9c0,0.7,0.3,1,0.8,1.4
		c1.7,0.9,7.6,1.7,12.7,1.7c2.8,0,5.9-0.1,8.6-2c3.9-2.6,6.9-8.5,6.9-17c0-13.9-7.6-21.9-19.9-21.9c-3.4,0-7.1,0.4-8.3,0.7
		c-0.5,0.3-0.9,0.7-0.9,1.3v35.8H976.5z"/>
	<path class="st0" d="M1156.8,276.1c0,10.7,0,19.5,0.5,24.1c0.4,3.3,0.8,5.4,4.2,5.9c1.7,0.3,4.2,0.5,5.2,0.5c0.7,0,0.9,0.5,0.9,0.9
		c0,0.5-0.5,0.9-1.8,0.9c-6.4,0-13.9-0.4-14.4-0.4c-0.7,0-7.9,0.4-11.4,0.4c-1.2,0-1.8-0.3-1.8-0.9c0-0.4,0.3-0.9,0.9-0.9
		c1,0,2.5-0.3,3.5-0.5c2.2-0.5,2.6-2.6,3-5.9c0.5-4.6,0.7-13.4,0.7-24.1v-19.7c0-17.3,0-20.4-0.3-24c-0.3-3.8-1.2-5.5-3.7-6
		c-1.3-0.3-2.8-0.4-3.5-0.4c-0.5,0-0.9-0.5-0.9-0.9c0-0.7,0.5-0.9,1.8-0.9c3.8,0,11,0.3,11.7,0.3c0.5,0,8-0.3,11.5-0.3
		c1.3,0,1.8,0.3,1.8,0.9c0,0.4-0.5,0.9-0.9,0.9c-0.8,0-1.6,0-2.9,0.3c-3.1,0.7-3.8,2.2-4.1,6.2c-0.1,3.5-0.1,6.7-0.1,24v19.6H1156.8
		z M1171.4,206.7c0.7,1.2,0,1.6-0.5,1.6c-0.4,0-1.7-0.3-3.9,0c-6.4,0.7-15.6,3.7-19.9,5.5c-0.9,0.4-1.7,0.7-2,0.7s-0.7-0.3-0.7-0.8
		c0-0.4,0.3-0.7,0.9-1c4.7-3.3,16.9-10.6,17.8-11.1c2.2-1.3,3-1.7,3.7-1.7c0.4,0,0.7,0.3,1.3,1.2
		C1169.1,202.3,1170,204.1,1171.4,206.7z"/>
	<path class="st0" d="M1286.3,256.5c0-17.3,0-20.4-0.3-24c-0.3-3.8-0.9-5.6-4.7-6.2c-0.9-0.1-2.9-0.3-3.9-0.3
		c-0.4,0-0.9-0.5-0.9-0.9c0-0.7,0.5-0.9,1.8-0.9c5.2,0,12.7,0.3,13.4,0.3c1.3,0,8.6-0.3,15.5-0.3c11.5,0,32.6-1,46.2,12.7
		c5.8,5.8,11.3,15.1,11.3,28.3c0,14-6,24.8-12.4,31.3c-5,5.1-15.3,12.8-35,12.8c-5,0-11.1-0.4-16.1-0.7c-5-0.4-8.9-0.7-9.4-0.7
		c-0.3,0-2.4,0.1-4.7,0.1c-2.4,0.1-5.1,0.3-6.9,0.3c-1.2,0-1.8-0.3-1.8-0.9c0-0.4,0.3-0.9,0.9-0.9c1,0,2.5-0.3,3.5-0.5
		c2.2-0.5,2.5-2.6,3-5.9c0.7-4.6,0.7-13.4,0.7-24.1v-19.5H1286.3z M1296.8,268.5c0,11.8,0,22.1,0.1,24.2c0.1,2.8,0.4,6.8,1.3,8
		c1.4,2.1,5.5,4.5,19.1,4.5c10.6,0,20-3.5,27-10.1c6-5.6,9-16.2,9-26.5c0-14.1-6.2-23.2-10.9-27.9c-10.9-11-23.6-12.4-37.3-12.4
		c-2.2,0-5.9,0.4-6.9,0.8c-1,0.4-1.4,0.9-1.4,2.2v37.2H1296.8z"/>
	<path class="st0" d="M1493.3,276.1c0,10.7,0,19.5,0.5,24.1c0.4,3.3,0.8,5.4,4.2,5.9c1.7,0.3,4.2,0.5,5.2,0.5c0.7,0,0.9,0.5,0.9,0.9
		c0,0.5-0.5,0.9-1.8,0.9c-6.4,0-13.9-0.4-14.4-0.4c-0.7,0-7.9,0.4-11.4,0.4c-1.2,0-1.8-0.3-1.8-0.9c0-0.4,0.3-0.9,0.9-0.9
		c1,0,2.5-0.3,3.5-0.5c2.2-0.5,2.6-2.6,3-5.9c0.5-4.6,0.7-13.4,0.7-24.1v-19.7c0-17.3,0-20.4-0.3-24c-0.3-3.8-1.2-5.5-3.7-6
		c-1.3-0.3-2.8-0.4-3.5-0.4c-0.5,0-0.9-0.5-0.9-0.9c0-0.7,0.5-0.9,1.8-0.9c3.8,0,11,0.3,11.7,0.3c0.5,0,8-0.3,11.5-0.3
		c1.3,0,1.8,0.3,1.8,0.9c0,0.4-0.5,0.9-0.9,0.9c-0.8,0-1.6,0-2.9,0.3c-3.1,0.7-3.8,2.2-4.1,6.2c-0.1,3.5-0.1,6.7-0.1,24v19.6H1493.3
		z"/>
	<path class="st0" d="M1624.5,298c-11.3-9.7-14-22.4-14-33c0-7.5,2.8-20.4,13-30.4c6.9-6.7,17.4-11.9,35.1-11.9
		c4.6,0,11.1,0.4,16.8,1.3c4.3,0.8,8,1.6,11.8,1.7c1.2,0,1.4,0.5,1.4,1.2c0,0.9-0.3,2.2-0.5,6.3c-0.1,3.7-0.1,9.8-0.3,11.4
		c-0.1,1.7-0.7,2.4-1.3,2.4c-0.8,0-0.9-0.8-0.9-2.4c0-4.3-1.8-8.8-4.8-11.1c-4.1-3.4-12.4-6.2-22.7-6.2c-14.8,0-21.9,3.9-25.9,7.7
		c-8.5,7.9-10.3,17.8-10.3,29.1c0,21.4,16.9,40.3,41.5,40.3c8.6,0,14.4-0.7,19-5.2c2.5-2.5,4.1-7.2,4.5-9.3c0.3-1.2,0.4-1.6,1.2-1.6
		c0.5,0,1,0.8,1,1.6s-1.6,10.5-2.8,14.3c-0.7,2.1-0.9,2.5-2.9,3.3c-4.7,1.8-13.4,2.5-20.8,2.5C1645.2,309.9,1633.5,305.9,1624.5,298
		z"/>
	<path class="st0" d="M1825.6,226.5c1.4-3.7,2-4.3,2.8-4.3c1.2,0,1.6,1.6,2.8,4.1c2.1,4.7,20.6,50.7,27.6,67.6
		c4.2,10,7.3,11.4,9.8,12.2c1.7,0.5,3.4,0.7,4.6,0.7c0.7,0,1.4,0.3,1.4,0.9c0,0.7-1.3,0.9-2.6,0.9c-1.7,0-10.2,0-18.2-0.3
		c-2.2-0.1-4.1-0.1-4.1-0.8c0-0.5,0.3-0.5,0.8-0.8c0.7-0.3,1.8-1.2,1-3l-10.3-25.5c-0.3-0.5-0.4-0.7-1-0.7h-26.6
		c-0.5,0-0.9,0.3-1.2,0.9l-6.5,17.8c-1,2.8-1.7,5.5-1.7,7.5c0,2.2,2,3,3.9,3h1c0.9,0,1.2,0.4,1.2,0.9c0,0.7-0.7,0.9-1.7,0.9
		c-2.7,0-9-0.4-10.3-0.4c-1.2,0-6.9,0.4-11.7,0.4c-1.4,0-2.2-0.3-2.2-0.9c0-0.5,0.5-0.9,1-0.9c0.8,0,2.5-0.1,3.4-0.3
		c5.2-0.7,7.5-4.6,9.7-10.2L1825.6,226.5z M1838.4,272.9c0.5,0,0.5-0.3,0.4-0.8l-11.4-30.5c-0.7-1.7-1.3-1.7-2,0l-10.7,30.5
		c-0.1,0.5,0,0.8,0.4,0.8H1838.4z"/>
</g>
</svg>
